<mxfile host="app.diagrams.net" modified="2021-08-26T03:00:11.860Z" agent="5.0 (Macintosh; Intel Mac OS X 10_15_7) AppleWebKit/537.36 (KHTML, like Gecko) Chrome/86.0.4240.193 Safari/537.36" etag="S6zUKEtq09Bq2j6PRTZL" version="14.9.9" type="github">
  <diagram id="LKY4freffCrciH1vmq2j" name="Page-1">
    <mxGraphModel dx="946" dy="536" grid="1" gridSize="10" guides="1" tooltips="1" connect="1" arrows="1" fold="1" page="1" pageScale="1" pageWidth="827" pageHeight="1169" math="0" shadow="0">
      <root>
        <mxCell id="0" />
        <mxCell id="1" parent="0" />
        <mxCell id="Z8sFSLO49hUu9zAF1JNp-1" style="rounded=0;orthogonalLoop=1;jettySize=auto;html=1;exitX=0;exitY=1;exitDx=0;exitDy=0;entryX=0.7;entryY=0.05;entryDx=0;entryDy=0;entryPerimeter=0;fillColor=#dae8fc;strokeColor=#6c8ebf;" edge="1" parent="1" source="Z8sFSLO49hUu9zAF1JNp-3" target="Z8sFSLO49hUu9zAF1JNp-6">
          <mxGeometry relative="1" as="geometry" />
        </mxCell>
        <mxCell id="Z8sFSLO49hUu9zAF1JNp-2" style="edgeStyle=none;rounded=0;orthogonalLoop=1;jettySize=auto;html=1;exitX=1;exitY=1;exitDx=0;exitDy=0;fillColor=#dae8fc;strokeColor=#6c8ebf;" edge="1" parent="1" source="Z8sFSLO49hUu9zAF1JNp-3" target="Z8sFSLO49hUu9zAF1JNp-9">
          <mxGeometry relative="1" as="geometry" />
        </mxCell>
        <mxCell id="Z8sFSLO49hUu9zAF1JNp-3" value="9" style="ellipse;whiteSpace=wrap;html=1;aspect=fixed;fillColor=#dae8fc;strokeColor=#6c8ebf;dashed=1;" vertex="1" parent="1">
          <mxGeometry x="150" y="100" width="40" height="40" as="geometry" />
        </mxCell>
        <mxCell id="Z8sFSLO49hUu9zAF1JNp-4" style="edgeStyle=none;rounded=0;orthogonalLoop=1;jettySize=auto;html=1;exitX=0;exitY=1;exitDx=0;exitDy=0;entryX=0.5;entryY=0;entryDx=0;entryDy=0;fillColor=#dae8fc;strokeColor=#6c8ebf;" edge="1" parent="1" source="Z8sFSLO49hUu9zAF1JNp-6" target="Z8sFSLO49hUu9zAF1JNp-11">
          <mxGeometry relative="1" as="geometry" />
        </mxCell>
        <mxCell id="Z8sFSLO49hUu9zAF1JNp-5" style="edgeStyle=none;rounded=0;orthogonalLoop=1;jettySize=auto;html=1;exitX=1;exitY=1;exitDx=0;exitDy=0;entryX=0.5;entryY=0;entryDx=0;entryDy=0;fillColor=#dae8fc;strokeColor=#6c8ebf;" edge="1" parent="1" source="Z8sFSLO49hUu9zAF1JNp-6" target="Z8sFSLO49hUu9zAF1JNp-12">
          <mxGeometry relative="1" as="geometry" />
        </mxCell>
        <mxCell id="Z8sFSLO49hUu9zAF1JNp-6" value="5" style="ellipse;whiteSpace=wrap;html=1;aspect=fixed;fillColor=#dae8fc;strokeColor=#6c8ebf;" vertex="1" parent="1">
          <mxGeometry x="90" y="180" width="40" height="40" as="geometry" />
        </mxCell>
        <mxCell id="Z8sFSLO49hUu9zAF1JNp-7" style="edgeStyle=none;rounded=0;orthogonalLoop=1;jettySize=auto;html=1;exitX=0;exitY=1;exitDx=0;exitDy=0;entryX=0.5;entryY=0;entryDx=0;entryDy=0;fillColor=#dae8fc;strokeColor=#6c8ebf;" edge="1" parent="1" source="Z8sFSLO49hUu9zAF1JNp-9" target="Z8sFSLO49hUu9zAF1JNp-13">
          <mxGeometry relative="1" as="geometry" />
        </mxCell>
        <mxCell id="Z8sFSLO49hUu9zAF1JNp-8" style="rounded=0;orthogonalLoop=1;jettySize=auto;html=1;exitX=1;exitY=1;exitDx=0;exitDy=0;fillColor=#dae8fc;strokeColor=#6c8ebf;" edge="1" parent="1" source="Z8sFSLO49hUu9zAF1JNp-9" target="Z8sFSLO49hUu9zAF1JNp-14">
          <mxGeometry relative="1" as="geometry" />
        </mxCell>
        <mxCell id="Z8sFSLO49hUu9zAF1JNp-9" value="7" style="ellipse;whiteSpace=wrap;html=1;aspect=fixed;fillColor=#dae8fc;strokeColor=#6c8ebf;" vertex="1" parent="1">
          <mxGeometry x="200" y="180" width="40" height="40" as="geometry" />
        </mxCell>
        <mxCell id="Z8sFSLO49hUu9zAF1JNp-11" value="2" style="ellipse;whiteSpace=wrap;html=1;aspect=fixed;fillColor=#dae8fc;strokeColor=#6c8ebf;" vertex="1" parent="1">
          <mxGeometry x="50" y="260" width="40" height="40" as="geometry" />
        </mxCell>
        <mxCell id="Z8sFSLO49hUu9zAF1JNp-12" value="4" style="ellipse;whiteSpace=wrap;html=1;aspect=fixed;fillColor=#dae8fc;strokeColor=#6c8ebf;" vertex="1" parent="1">
          <mxGeometry x="120" y="260" width="40" height="40" as="geometry" />
        </mxCell>
        <mxCell id="Z8sFSLO49hUu9zAF1JNp-13" value="3" style="ellipse;whiteSpace=wrap;html=1;aspect=fixed;fillColor=#dae8fc;strokeColor=#6c8ebf;" vertex="1" parent="1">
          <mxGeometry x="170" y="260" width="40" height="40" as="geometry" />
        </mxCell>
        <mxCell id="Z8sFSLO49hUu9zAF1JNp-14" value="6" style="ellipse;whiteSpace=wrap;html=1;aspect=fixed;fillColor=#dae8fc;strokeColor=#6c8ebf;" vertex="1" parent="1">
          <mxGeometry x="240" y="260" width="40" height="40" as="geometry" />
        </mxCell>
        <mxCell id="Z8sFSLO49hUu9zAF1JNp-16" style="rounded=0;orthogonalLoop=1;jettySize=auto;html=1;exitX=0;exitY=1;exitDx=0;exitDy=0;entryX=0.7;entryY=0.05;entryDx=0;entryDy=0;entryPerimeter=0;fillColor=#dae8fc;strokeColor=#6c8ebf;" edge="1" parent="1" source="Z8sFSLO49hUu9zAF1JNp-18" target="Z8sFSLO49hUu9zAF1JNp-21">
          <mxGeometry relative="1" as="geometry" />
        </mxCell>
        <mxCell id="Z8sFSLO49hUu9zAF1JNp-17" style="edgeStyle=none;rounded=0;orthogonalLoop=1;jettySize=auto;html=1;exitX=1;exitY=1;exitDx=0;exitDy=0;fillColor=#dae8fc;strokeColor=#6c8ebf;" edge="1" parent="1" source="Z8sFSLO49hUu9zAF1JNp-18" target="Z8sFSLO49hUu9zAF1JNp-24">
          <mxGeometry relative="1" as="geometry" />
        </mxCell>
        <mxCell id="Z8sFSLO49hUu9zAF1JNp-18" value="6" style="ellipse;whiteSpace=wrap;html=1;aspect=fixed;fillColor=#ffe6cc;strokeColor=#d79b00;" vertex="1" parent="1">
          <mxGeometry x="420" y="100" width="40" height="40" as="geometry" />
        </mxCell>
        <mxCell id="Z8sFSLO49hUu9zAF1JNp-19" style="edgeStyle=none;rounded=0;orthogonalLoop=1;jettySize=auto;html=1;exitX=0;exitY=1;exitDx=0;exitDy=0;entryX=0.5;entryY=0;entryDx=0;entryDy=0;fillColor=#dae8fc;strokeColor=#6c8ebf;" edge="1" parent="1" source="Z8sFSLO49hUu9zAF1JNp-21" target="Z8sFSLO49hUu9zAF1JNp-25">
          <mxGeometry relative="1" as="geometry" />
        </mxCell>
        <mxCell id="Z8sFSLO49hUu9zAF1JNp-20" style="edgeStyle=none;rounded=0;orthogonalLoop=1;jettySize=auto;html=1;exitX=1;exitY=1;exitDx=0;exitDy=0;entryX=0.5;entryY=0;entryDx=0;entryDy=0;fillColor=#dae8fc;strokeColor=#6c8ebf;" edge="1" parent="1" source="Z8sFSLO49hUu9zAF1JNp-21" target="Z8sFSLO49hUu9zAF1JNp-26">
          <mxGeometry relative="1" as="geometry" />
        </mxCell>
        <mxCell id="Z8sFSLO49hUu9zAF1JNp-21" value="5" style="ellipse;whiteSpace=wrap;html=1;aspect=fixed;fillColor=#dae8fc;strokeColor=#6c8ebf;" vertex="1" parent="1">
          <mxGeometry x="360" y="180" width="40" height="40" as="geometry" />
        </mxCell>
        <mxCell id="Z8sFSLO49hUu9zAF1JNp-22" style="edgeStyle=none;rounded=0;orthogonalLoop=1;jettySize=auto;html=1;exitX=0;exitY=1;exitDx=0;exitDy=0;entryX=0.5;entryY=0;entryDx=0;entryDy=0;fillColor=#dae8fc;strokeColor=#6c8ebf;" edge="1" parent="1" source="Z8sFSLO49hUu9zAF1JNp-24" target="Z8sFSLO49hUu9zAF1JNp-27">
          <mxGeometry relative="1" as="geometry" />
        </mxCell>
        <mxCell id="Z8sFSLO49hUu9zAF1JNp-24" value="7" style="ellipse;whiteSpace=wrap;html=1;aspect=fixed;fillColor=#dae8fc;strokeColor=#6c8ebf;" vertex="1" parent="1">
          <mxGeometry x="470" y="180" width="40" height="40" as="geometry" />
        </mxCell>
        <mxCell id="Z8sFSLO49hUu9zAF1JNp-25" value="2" style="ellipse;whiteSpace=wrap;html=1;aspect=fixed;fillColor=#dae8fc;strokeColor=#6c8ebf;" vertex="1" parent="1">
          <mxGeometry x="320" y="260" width="40" height="40" as="geometry" />
        </mxCell>
        <mxCell id="Z8sFSLO49hUu9zAF1JNp-26" value="4" style="ellipse;whiteSpace=wrap;html=1;aspect=fixed;fillColor=#dae8fc;strokeColor=#6c8ebf;" vertex="1" parent="1">
          <mxGeometry x="390" y="260" width="40" height="40" as="geometry" />
        </mxCell>
        <mxCell id="Z8sFSLO49hUu9zAF1JNp-27" value="3" style="ellipse;whiteSpace=wrap;html=1;aspect=fixed;fillColor=#dae8fc;strokeColor=#6c8ebf;" vertex="1" parent="1">
          <mxGeometry x="440" y="260" width="40" height="40" as="geometry" />
        </mxCell>
        <mxCell id="Z8sFSLO49hUu9zAF1JNp-29" style="rounded=0;orthogonalLoop=1;jettySize=auto;html=1;exitX=0;exitY=1;exitDx=0;exitDy=0;entryX=0.7;entryY=0.05;entryDx=0;entryDy=0;entryPerimeter=0;fillColor=#dae8fc;strokeColor=#6c8ebf;" edge="1" parent="1" source="Z8sFSLO49hUu9zAF1JNp-31" target="Z8sFSLO49hUu9zAF1JNp-34">
          <mxGeometry relative="1" as="geometry" />
        </mxCell>
        <mxCell id="Z8sFSLO49hUu9zAF1JNp-30" style="edgeStyle=none;rounded=0;orthogonalLoop=1;jettySize=auto;html=1;exitX=1;exitY=1;exitDx=0;exitDy=0;fillColor=#dae8fc;strokeColor=#6c8ebf;" edge="1" parent="1" source="Z8sFSLO49hUu9zAF1JNp-31" target="Z8sFSLO49hUu9zAF1JNp-36">
          <mxGeometry relative="1" as="geometry" />
        </mxCell>
        <mxCell id="Z8sFSLO49hUu9zAF1JNp-31" value="7" style="ellipse;whiteSpace=wrap;html=1;aspect=fixed;fillColor=#ffe6cc;strokeColor=#d79b00;" vertex="1" parent="1">
          <mxGeometry x="660" y="100" width="40" height="40" as="geometry" />
        </mxCell>
        <mxCell id="Z8sFSLO49hUu9zAF1JNp-32" style="edgeStyle=none;rounded=0;orthogonalLoop=1;jettySize=auto;html=1;exitX=0;exitY=1;exitDx=0;exitDy=0;entryX=0.5;entryY=0;entryDx=0;entryDy=0;fillColor=#dae8fc;strokeColor=#6c8ebf;" edge="1" parent="1" source="Z8sFSLO49hUu9zAF1JNp-34" target="Z8sFSLO49hUu9zAF1JNp-37">
          <mxGeometry relative="1" as="geometry" />
        </mxCell>
        <mxCell id="Z8sFSLO49hUu9zAF1JNp-33" style="edgeStyle=none;rounded=0;orthogonalLoop=1;jettySize=auto;html=1;exitX=1;exitY=1;exitDx=0;exitDy=0;entryX=0.5;entryY=0;entryDx=0;entryDy=0;fillColor=#dae8fc;strokeColor=#6c8ebf;" edge="1" parent="1" source="Z8sFSLO49hUu9zAF1JNp-34" target="Z8sFSLO49hUu9zAF1JNp-38">
          <mxGeometry relative="1" as="geometry" />
        </mxCell>
        <mxCell id="Z8sFSLO49hUu9zAF1JNp-34" value="5" style="ellipse;whiteSpace=wrap;html=1;aspect=fixed;fillColor=#dae8fc;strokeColor=#6c8ebf;" vertex="1" parent="1">
          <mxGeometry x="600" y="180" width="40" height="40" as="geometry" />
        </mxCell>
        <mxCell id="Z8sFSLO49hUu9zAF1JNp-35" style="edgeStyle=none;rounded=0;orthogonalLoop=1;jettySize=auto;html=1;exitX=0;exitY=1;exitDx=0;exitDy=0;entryX=0.5;entryY=0;entryDx=0;entryDy=0;fillColor=#dae8fc;strokeColor=#6c8ebf;" edge="1" parent="1" source="Z8sFSLO49hUu9zAF1JNp-36" target="Z8sFSLO49hUu9zAF1JNp-39">
          <mxGeometry relative="1" as="geometry" />
        </mxCell>
        <mxCell id="Z8sFSLO49hUu9zAF1JNp-36" value="6" style="ellipse;whiteSpace=wrap;html=1;aspect=fixed;fillColor=#dae8fc;strokeColor=#6c8ebf;" vertex="1" parent="1">
          <mxGeometry x="710" y="180" width="40" height="40" as="geometry" />
        </mxCell>
        <mxCell id="Z8sFSLO49hUu9zAF1JNp-37" value="2" style="ellipse;whiteSpace=wrap;html=1;aspect=fixed;fillColor=#dae8fc;strokeColor=#6c8ebf;" vertex="1" parent="1">
          <mxGeometry x="560" y="260" width="40" height="40" as="geometry" />
        </mxCell>
        <mxCell id="Z8sFSLO49hUu9zAF1JNp-38" value="4" style="ellipse;whiteSpace=wrap;html=1;aspect=fixed;fillColor=#dae8fc;strokeColor=#6c8ebf;" vertex="1" parent="1">
          <mxGeometry x="630" y="260" width="40" height="40" as="geometry" />
        </mxCell>
        <mxCell id="Z8sFSLO49hUu9zAF1JNp-39" value="3" style="ellipse;whiteSpace=wrap;html=1;aspect=fixed;fillColor=#dae8fc;strokeColor=#6c8ebf;" vertex="1" parent="1">
          <mxGeometry x="680" y="260" width="40" height="40" as="geometry" />
        </mxCell>
      </root>
    </mxGraphModel>
  </diagram>
</mxfile>
